<?xml version="1.0" encoding="UTF-8"?>
<svg id="Layer_1" xmlns="http://www.w3.org/2000/svg" version="1.1" viewBox="0 0 800.1 373.5">
  <!-- Generator: Adobe Illustrator 29.0.1, SVG Export Plug-In . SVG Version: 2.1.0 Build 192)  -->
  <defs>
    <style>
      .st0 {
        fill: #191c27;
      }

      .st1 {
        fill: #fff;
      }
    </style>
  </defs>
  <rect class="st0" width="800.1" height="373.5"/>
  <path class="st1" d="M236.8,105.9c8.1-3.9,17.9-.5,21.9,7.6,3.9,8.1.5,17.9-7.6,21.9l-14.7,7.1-.2-.5-7.3-15h0c-3.4-8,0-17.3,7.9-21.2Z"/>
  <path class="st1" d="M116.3,215.3h0s58.1-103,58.1-103h0c3-6,9.3-10.1,16.5-10.1,7.2,0,13.4,4.1,16.5,10.1h0l60,123.9h0c.6,1,.9,2.1.9,3.3,0,3.5-2.7,6.3-6.1,6.4h0s-36.3,0-36.3,0h1.9c-.4,0-2.8,0-3.3,0-10.9,0-19.8-8.9-19.8-19.8,0-3.8,1.1-7.4,3-10.5,0,0,18.3-32.4,18.7-33.2h0s0,0,0,0c.9-2.2,1.4-4.5,1.4-7,0-10.2-8.3-18.5-18.5-18.5-5.8,0-10.9,2.7-14.3,6.8h0s0,0,0,0c-1.1,1.3-43.2,71-43.2,71h0c-3.3,6-10.2,11.2-18.1,11.2-11.2,0-20.3-9.1-20.3-20.3s1.1-7.4,2.9-10.4Z"/>
  <g>
    <path class="st1" d="M416.9,135.4h13.9c.9,0,1.6.7,1.6,1.6v76.2c0,.9-.7,1.6-1.6,1.6h-13.9c-.9,0-1.6-.7-1.6-1.6v-76.2c0-.9.7-1.6,1.6-1.6Z"/>
    <path class="st1" d="M516.7,175.1c0,23.2-17.8,39.6-42.4,39.6h-24.4c-.9,0-1.6-.7-1.6-1.6v-76.2c0-.9.7-1.6,1.6-1.6h24.4c24.5,0,42.4,16.5,42.4,39.7ZM499.3,175.1c0-14.1-9.9-23.5-25-23.5h-8.9v46.9h8.9c15.1,0,25-9.4,25-23.4Z"/>
    <path class="st1" d="M589.8,218.3l-3.8-4.2c-.4-.5-1.1-.7-1.8-.4-4.9,1.9-10.3,3-15.9,3-23.5,0-42.5-18.4-42.5-41.7s19-41.7,42.5-41.7,42.5,18.4,42.5,41.7-4,20.5-10.8,27.9-.6,1.5,0,2.2l10,11.1c.9,1,.2,2.7-1.2,2.7h-17.8c-.5,0-.9-.2-1.2-.5ZM571.3,197.7l-12.4-13.7h21.4c.5,0,.9.2,1.2.5l4.9,5.5c.7.8,2,.7,2.6-.2,2.8-4.1,4.5-9.2,4.5-14.8,0-14.4-10.9-25.4-25.1-25.4s-25.1,11-25.1,25.4,10.9,25.4,25.1,25.4,1.2,0,1.8,0c1.3,0,2-1.7,1.1-2.7Z"/>
    <path class="st1" d="M662.7,201.8h-27.5c-.6,0-1.2.4-1.5,1l-4.6,11c-.3.6-.8,1-1.5,1h-13.3c-1.2,0-1.9-1.2-1.5-2.3l36.5-79.4h.2l36.5,79.4c.5,1.1-.3,2.3-1.5,2.3h-14.3c-.6,0-1.2-.4-1.5-1l-4.7-11c-.3-.6-.8-1-1.5-1ZM657,186.2l-8.2-19-8.1,19h16.2Z"/>
  </g>
  <path class="st1" d="M406.1,212.5l-36.5-79.4h0c0,0-.1,0-.2,0,0,0,0,0,0,0l-36.5,79.4c-.5,1.1.3,2.3,1.5,2.3h13.3c.6,0,1.2-.4,1.5-1l4.6-11c.3-.6.8-1,1.5-1h27.5c.6,0,1.2.4,1.5,1l4.7,11c.3.6.8,1,1.5,1h14.3c1.2,0,1.9-1.2,1.5-2.3ZM360.8,186.2l8.1-19,8.2,19h-16.2Z"/>
</svg>