<?xml version="1.0" encoding="UTF-8"?>
<svg id="Layer_1" data-name="Layer 1" xmlns="http://www.w3.org/2000/svg" viewBox="0 0 362.59 100.46">
  <defs>
    <style>
      .cls-1 {
        fill: #d54d27;
      }
    </style>
  </defs>
  <path class="cls-1" d="M79.73,8.89c5.03-2.44,11.09-.34,13.53,4.7s.34,11.09-4.7,13.53l-9.12,4.42-.14-.29-4.49-9.26h.01c-2.12-4.94,0-10.72,4.9-13.09Z"/>
  <path class="cls-1" d="M5.21,76.55h0S41.11,12.88,41.11,12.88h.01c1.88-3.71,5.73-6.27,10.18-6.27,4.45,0,8.3,2.55,10.18,6.27h0l37.11,76.65h0c.36.6.57,1.3.57,2.04,0,2.13-1.69,3.87-3.8,3.95h0s-22.44,0-22.44,0l1.2-.04c-.26.02-1.75.04-2.01.04-6.76,0-12.23-5.48-12.23-12.23,0-2.38.69-4.59,1.87-6.47,0,0,11.34-20.07,11.54-20.54v-.02s0,0,0,0c.55-1.34.86-2.81.86-4.35,0-6.31-5.11-11.42-11.42-11.42-3.57,0-6.76,1.64-8.85,4.21h0s0,.01,0,.01c-.65.8-26.7,43.9-26.7,43.9h0c-2.07,3.71-6.3,6.91-11.2,6.91-6.92,0-12.54-5.61-12.54-12.54,0-2.36.65-4.57,1.79-6.46Z"/>
  <g>
    <path class="cls-1" d="M191.12,27.11h8.62c.55,0,.99.44.99.99v47.1c0,.55-.44.99-.99.99h-8.62c-.55,0-.99-.44-.99-.99V28.1c0-.55.44-.99.99-.99Z"/>
    <path class="cls-1" d="M252.84,51.68c0,14.32-11.02,24.51-26.19,24.51h-15.09c-.55,0-.99-.44-.99-.99V28.1c0-.55.44-.99.99-.99h15.09c15.17,0,26.19,10.18,26.19,24.58ZM242.09,51.68c0-8.71-6.11-14.54-15.45-14.54h-5.48v29h5.48c9.34,0,15.45-5.83,15.45-14.47Z"/>
    <path class="cls-1" d="M298.05,78.39l-2.34-2.6c-.28-.31-.71-.4-1.09-.26-3.05,1.18-6.35,1.85-9.83,1.85-14.54,0-26.26-11.38-26.26-25.77s11.73-25.77,26.26-25.77,26.26,11.38,26.26,25.77c0,6.69-2.49,12.69-6.68,17.25-.35.38-.36.95-.02,1.34l6.18,6.87c.58.64.12,1.66-.74,1.66h-11.02c-.28,0-.55-.12-.74-.33ZM286.61,65.65l-7.65-8.49h13.25c.28,0,.55.12.74.33l3.03,3.39c.44.49,1.21.42,1.58-.12,1.72-2.57,2.75-5.69,2.75-9.15,0-8.92-6.74-15.73-15.52-15.73s-15.52,6.81-15.52,15.73,6.74,15.73,15.52,15.73c.38,0,.77,0,1.14-.03.83-.05,1.23-1.04.68-1.66Z"/>
    <path class="cls-1" d="M343.12,68.18h-17.02c-.4,0-.76.24-.91.61l-2.86,6.79c-.15.37-.52.61-.91.61h-8.25c-.72,0-1.2-.75-.9-1.41l22.6-49.08h.14l22.6,49.08c.3.66-.18,1.41-.9,1.41h-8.82c-.4,0-.76-.24-.91-.6l-2.92-6.8c-.16-.36-.52-.6-.91-.6ZM339.63,58.49l-5.06-11.73-4.99,11.73h10.04Z"/>
  </g>
  <path class="cls-1" d="M184.42,74.78l-22.6-49.08-.02-.03s-.08-.03-.11,0c0,0-.02.03-.02.03l-22.6,49.08c-.3.66.18,1.41.9,1.41h8.25c.4,0,.76-.24.91-.61l2.86-6.79c.15-.37.52-.61.91-.61h17.02c.4,0,.76.24.91.6l2.92,6.8c.16.36.52.6.91.6h8.82c.72,0,1.2-.75.9-1.41ZM156.42,58.49l4.99-11.73,5.06,11.73h-10.04Z"/>
</svg>
