<?xml version="1.0" encoding="UTF-8"?>
<svg id="Layer_1" data-name="Layer 1" xmlns="http://www.w3.org/2000/svg" viewBox="0 0 247.1 70.55">
  <defs>
    <style>
      .cls-1 {
        fill: #fff;
      }
    </style>
  </defs>
  <path class="cls-1" d="M56.06,7.41c3.36-1.63,7.39-.22,9.02,3.13s.22,7.39-3.13,9.02l-6.08,2.94-.09-.19-2.99-6.18h0c-1.41-3.29,0-7.15,3.26-8.73Z"/>
  <path class="cls-1" d="M6.38,52.51h0S30.32,10.07,30.32,10.07h0c1.26-2.48,3.82-4.18,6.79-4.18s5.53,1.7,6.79,4.18h0l24.74,51.1h0c.24.4.38.87.38,1.36,0,1.42-1.13,2.58-2.53,2.64h0s-14.96,0-14.96,0l.8-.03c-.17.01-1.17.03-1.34.03-4.5,0-8.16-3.65-8.16-8.16,0-1.59.46-3.06,1.24-4.31,0,0,7.56-13.38,7.69-13.69h0s0-.01,0-.01c.37-.89.57-1.87.57-2.9,0-4.2-3.41-7.61-7.61-7.61-2.38,0-4.5,1.09-5.9,2.81h0s0,0,0,0c-.43.53-17.8,29.26-17.8,29.26h0c-1.38,2.47-4.2,4.61-7.47,4.61-4.62,0-8.36-3.74-8.36-8.36,0-1.57.44-3.05,1.19-4.3Z"/>
  <g>
    <path class="cls-1" d="M130.32,19.55h5.75c.37,0,.66.3.66.66v31.4c0,.37-.3.66-.66.66h-5.75c-.37,0-.66-.3-.66-.66v-31.4c0-.37.3-.66.66-.66Z"/>
    <path class="cls-1" d="M171.46,35.94c0,9.55-7.35,16.34-17.46,16.34h-10.06c-.37,0-.66-.3-.66-.66v-31.4c0-.37.3-.66.66-.66h10.06c10.11,0,17.46,6.79,17.46,16.38ZM164.29,35.94c0-5.8-4.07-9.69-10.3-9.69h-3.65v19.33h3.65c6.23,0,10.3-3.88,10.3-9.64Z"/>
    <path class="cls-1" d="M201.59,53.74l-1.56-1.73c-.18-.2-.47-.27-.73-.17-2.04.79-4.23,1.24-6.55,1.24-9.69,0-17.51-7.58-17.51-17.18s7.82-17.18,17.51-17.18,17.51,7.58,17.51,17.18c0,4.46-1.66,8.46-4.45,11.5-.23.25-.24.64-.01.89l4.12,4.58c.38.43.08,1.1-.49,1.1h-7.35c-.19,0-.37-.08-.49-.22ZM193.97,45.25l-5.1-5.66h8.83c.19,0,.37.08.49.22l2.02,2.26c.29.33.81.28,1.05-.08,1.15-1.71,1.84-3.79,1.84-6.1,0-5.94-4.49-10.49-10.35-10.49s-10.35,4.54-10.35,10.49,4.49,10.49,10.35,10.49c.26,0,.51,0,.76-.02.55-.03.82-.69.45-1.11Z"/>
    <path class="cls-1" d="M231.64,46.94h-11.34c-.27,0-.51.16-.61.4l-1.91,4.53c-.1.25-.34.4-.61.4h-5.5c-.48,0-.8-.5-.6-.94l15.06-32.72h.09l15.06,32.72c.2.44-.12.94-.6.94h-5.88c-.26,0-.5-.16-.61-.4l-1.95-4.54c-.1-.24-.34-.4-.61-.4ZM229.32,40.48l-3.37-7.82-3.32,7.82h6.69Z"/>
  </g>
  <path class="cls-1" d="M125.85,51.34l-15.06-32.72v-.02s-.06-.02-.08,0c0,0-.01.02-.01.02l-15.06,32.72c-.2.44.12.94.6.94h5.5c.27,0,.51-.16.61-.4l1.91-4.53c.1-.25.34-.4.61-.4h11.34c.26,0,.5.16.61.4l1.95,4.54c.1.24.34.4.61.4h5.88c.48,0,.8-.5.6-.94ZM107.18,40.48l3.32-7.82,3.37,7.82h-6.69Z"/>
</svg>