<?xml version="1.0" encoding="UTF-8"?>
<svg id="Layer_1" data-name="Layer 1" xmlns="http://www.w3.org/2000/svg" viewBox="0 0 1920 1080">
  <defs>
    <style>
      .cls-1 {
        fill: #fff;
      }
    </style>
  </defs>
  <g>
    <path class="cls-1" d="M1754.41,802.78h-.5c-.28,0-.5-.22-.5-.5s.22-.5.5-.5c0-.28.22-.5.5-.5s.5.22.5.5v.5c0,.28-.22.5-.5.5Z"/>
    <path class="cls-1" d="M1739.02,802.78h-.99c-.28,0-.5-.22-.5-.5s.22-.5.5-.5h.99c.28,0,.5.22.5.5s-.22.5-.5.5Z"/>
    <path class="cls-1" d="M1723.15,802.78h-.99c-.28,0-.5-.22-.5-.5s.22-.5.5-.5h.99c.28,0,.5.22.5.5s-.22.5-.5.5ZM1707.27,802.78h-.99c-.28,0-.5-.22-.5-.5s.22-.5.5-.5h.99c.28,0,.5.22.5.5s-.22.5-.5.5ZM1691.4,802.78h-.99c-.28,0-.5-.22-.5-.5s.22-.5.5-.5h.99c.28,0,.5.22.5.5s-.22.5-.5.5ZM1675.52,802.78h-.99c-.28,0-.5-.22-.5-.5s.22-.5.5-.5h.99c.28,0,.5.22.5.5s-.22.5-.5.5ZM1659.64,802.78h-.99c-.28,0-.5-.22-.5-.5s.22-.5.5-.5h.99c.28,0,.5.22.5.5s-.22.5-.5.5ZM1643.77,802.78h-.99c-.28,0-.5-.22-.5-.5s.22-.5.5-.5h.99c.28,0,.5.22.5.5s-.22.5-.5.5ZM1627.89,802.78h-.99c-.28,0-.5-.22-.5-.5s.22-.5.5-.5h.99c.28,0,.5.22.5.5s-.22.5-.5.5ZM1612.01,802.78h-.99c-.28,0-.5-.22-.5-.5s.22-.5.5-.5h.99c.28,0,.5.22.5.5s-.22.5-.5.5ZM1596.14,802.78h-.99c-.28,0-.5-.22-.5-.5s.22-.5.5-.5h.99c.28,0,.5.22.5.5s-.22.5-.5.5ZM1580.26,802.78h-.99c-.28,0-.5-.22-.5-.5s.22-.5.5-.5h.99c.28,0,.5.22.5.5s-.22.5-.5.5ZM1564.39,802.78h-.99c-.28,0-.5-.22-.5-.5s.22-.5.5-.5h.99c.28,0,.5.22.5.5s-.22.5-.5.5ZM1548.51,802.78h-.99c-.28,0-.5-.22-.5-.5s.22-.5.5-.5h.99c.28,0,.5.22.5.5s-.22.5-.5.5ZM1532.63,802.78h-.99c-.28,0-.5-.22-.5-.5s.22-.5.5-.5h.99c.28,0,.5.22.5.5s-.22.5-.5.5ZM1516.76,802.78h-.99c-.28,0-.5-.22-.5-.5s.22-.5.5-.5h.99c.28,0,.5.22.5.5s-.22.5-.5.5ZM1500.88,802.78h-.99c-.28,0-.5-.22-.5-.5s.22-.5.5-.5h.99c.28,0,.5.22.5.5s-.22.5-.5.5ZM1485.01,802.78h-.99c-.28,0-.5-.22-.5-.5s.22-.5.5-.5h.99c.28,0,.5.22.5.5s-.22.5-.5.5ZM1469.13,802.78h-.99c-.28,0-.5-.22-.5-.5s.22-.5.5-.5h.99c.28,0,.5.22.5.5s-.22.5-.5.5ZM1453.25,802.78h-.99c-.28,0-.5-.22-.5-.5s.22-.5.5-.5h.99c.28,0,.5.22.5.5s-.22.5-.5.5ZM1437.38,802.78h-.99c-.28,0-.5-.22-.5-.5s.22-.5.5-.5h.99c.28,0,.5.22.5.5s-.22.5-.5.5ZM1421.5,802.78h-.99c-.28,0-.5-.22-.5-.5s.22-.5.5-.5h.99c.28,0,.5.22.5.5s-.22.5-.5.5ZM1405.62,802.78h-.99c-.28,0-.5-.22-.5-.5s.22-.5.5-.5h.99c.28,0,.5.22.5.5s-.22.5-.5.5ZM1389.75,802.78h-.99c-.28,0-.5-.22-.5-.5s.22-.5.5-.5h.99c.28,0,.5.22.5.5s-.22.5-.5.5ZM1373.87,802.78h-.99c-.28,0-.5-.22-.5-.5s.22-.5.5-.5h.99c.28,0,.5.22.5.5s-.22.5-.5.5ZM1358,802.78h-.99c-.28,0-.5-.22-.5-.5s.22-.5.5-.5h.99c.28,0,.5.22.5.5s-.22.5-.5.5ZM1342.12,802.78h-.99c-.28,0-.5-.22-.5-.5s.22-.5.5-.5h.99c.28,0,.5.22.5.5s-.22.5-.5.5ZM1326.24,802.78h-.99c-.28,0-.5-.22-.5-.5s.22-.5.5-.5h.99c.28,0,.5.22.5.5s-.22.5-.5.5ZM1310.37,802.78h-.99c-.28,0-.5-.22-.5-.5s.22-.5.5-.5h.99c.28,0,.5.22.5.5s-.22.5-.5.5ZM1294.49,802.78h-.99c-.28,0-.5-.22-.5-.5s.22-.5.5-.5h.99c.28,0,.5.22.5.5s-.22.5-.5.5ZM1278.62,802.78h-.99c-.28,0-.5-.22-.5-.5s.22-.5.5-.5h.99c.28,0,.5.22.5.5s-.22.5-.5.5ZM1262.74,802.78h-.99c-.28,0-.5-.22-.5-.5s.22-.5.5-.5h.99c.28,0,.5.22.5.5s-.22.5-.5.5ZM1246.86,802.78h-.99c-.28,0-.5-.22-.5-.5s.22-.5.5-.5h.99c.28,0,.5.22.5.5s-.22.5-.5.5ZM1230.99,802.78h-.99c-.28,0-.5-.22-.5-.5s.22-.5.5-.5h.99c.28,0,.5.22.5.5s-.22.5-.5.5ZM1215.11,802.78h-.99c-.28,0-.5-.22-.5-.5s.22-.5.5-.5h.99c.28,0,.5.22.5.5s-.22.5-.5.5ZM1199.23,802.78h-.99c-.28,0-.5-.22-.5-.5s.22-.5.5-.5h.99c.28,0,.5.22.5.5s-.22.5-.5.5ZM1183.36,802.78h-.99c-.28,0-.5-.22-.5-.5s.22-.5.5-.5h.99c.28,0,.5.22.5.5s-.22.5-.5.5ZM1167.48,802.78h-.99c-.28,0-.5-.22-.5-.5s.22-.5.5-.5h.99c.28,0,.5.22.5.5s-.22.5-.5.5ZM1151.61,802.78h-.99c-.28,0-.5-.22-.5-.5s.22-.5.5-.5h.99c.28,0,.5.22.5.5s-.22.5-.5.5ZM1135.73,802.78h-.99c-.28,0-.5-.22-.5-.5s.22-.5.5-.5h.99c.28,0,.5.22.5.5s-.22.5-.5.5ZM1119.85,802.78h-.99c-.28,0-.5-.22-.5-.5s.22-.5.5-.5h.99c.28,0,.5.22.5.5s-.22.5-.5.5ZM1103.98,802.78h-.99c-.28,0-.5-.22-.5-.5s.22-.5.5-.5h.99c.28,0,.5.22.5.5s-.22.5-.5.5ZM1088.1,802.78h-.99c-.28,0-.5-.22-.5-.5s.22-.5.5-.5h.99c.28,0,.5.22.5.5s-.22.5-.5.5ZM1072.22,802.78h-.99c-.28,0-.5-.22-.5-.5s.22-.5.5-.5h.99c.28,0,.5.22.5.5s-.22.5-.5.5ZM1056.35,802.78h-.99c-.28,0-.5-.22-.5-.5s.22-.5.5-.5h.99c.28,0,.5.22.5.5s-.22.5-.5.5ZM1040.47,802.78h-.99c-.28,0-.5-.22-.5-.5s.22-.5.5-.5h.99c.28,0,.5.22.5.5s-.22.5-.5.5ZM1024.6,802.78h-.99c-.28,0-.5-.22-.5-.5s.22-.5.5-.5h.99c.28,0,.5.22.5.5s-.22.5-.5.5ZM1008.72,802.78h-.99c-.28,0-.5-.22-.5-.5s.22-.5.5-.5h.99c.28,0,.5.22.5.5s-.22.5-.5.5ZM992.84,802.78h-.99c-.28,0-.5-.22-.5-.5s.22-.5.5-.5h.99c.28,0,.5.22.5.5s-.22.5-.5.5ZM976.97,802.78h-.99c-.28,0-.5-.22-.5-.5s.22-.5.5-.5h.99c.28,0,.5.22.5.5s-.22.5-.5.5ZM961.09,802.78h-.99c-.28,0-.5-.22-.5-.5s.22-.5.5-.5h.99c.28,0,.5.22.5.5s-.22.5-.5.5ZM945.22,802.78h-.99c-.28,0-.5-.22-.5-.5s.22-.5.5-.5h.99c.28,0,.5.22.5.5s-.22.5-.5.5ZM929.34,802.78h-.99c-.28,0-.5-.22-.5-.5s.22-.5.5-.5h.99c.28,0,.5.22.5.5s-.22.5-.5.5ZM913.46,802.78h-.99c-.28,0-.5-.22-.5-.5s.22-.5.5-.5h.99c.28,0,.5.22.5.5s-.22.5-.5.5ZM897.59,802.78h-.99c-.28,0-.5-.22-.5-.5s.22-.5.5-.5h.99c.28,0,.5.22.5.5s-.22.5-.5.5ZM881.71,802.78h-.99c-.28,0-.5-.22-.5-.5s.22-.5.5-.5h.99c.28,0,.5.22.5.5s-.22.5-.5.5ZM865.83,802.78h-.99c-.28,0-.5-.22-.5-.5s.22-.5.5-.5h.99c.28,0,.5.22.5.5s-.22.5-.5.5ZM849.96,802.78h-.99c-.28,0-.5-.22-.5-.5s.22-.5.5-.5h.99c.28,0,.5.22.5.5s-.22.5-.5.5ZM834.08,802.78h-.99c-.28,0-.5-.22-.5-.5s.22-.5.5-.5h.99c.28,0,.5.22.5.5s-.22.5-.5.5ZM818.21,802.78h-.99c-.28,0-.5-.22-.5-.5s.22-.5.5-.5h.99c.28,0,.5.22.5.5s-.22.5-.5.5ZM802.33,802.78h-.99c-.28,0-.5-.22-.5-.5s.22-.5.5-.5h.99c.28,0,.5.22.5.5s-.22.5-.5.5ZM786.45,802.78h-.99c-.28,0-.5-.22-.5-.5s.22-.5.5-.5h.99c.28,0,.5.22.5.5s-.22.5-.5.5ZM770.58,802.78h-.99c-.28,0-.5-.22-.5-.5s.22-.5.5-.5h.99c.28,0,.5.22.5.5s-.22.5-.5.5ZM754.7,802.78h-.99c-.28,0-.5-.22-.5-.5s.22-.5.5-.5h.99c.28,0,.5.22.5.5s-.22.5-.5.5ZM738.83,802.78h-.99c-.28,0-.5-.22-.5-.5s.22-.5.5-.5h.99c.28,0,.5.22.5.5s-.22.5-.5.5ZM722.95,802.78h-.99c-.28,0-.5-.22-.5-.5s.22-.5.5-.5h.99c.28,0,.5.22.5.5s-.22.5-.5.5ZM707.07,802.78h-.99c-.28,0-.5-.22-.5-.5s.22-.5.5-.5h.99c.28,0,.5.22.5.5s-.22.5-.5.5ZM691.2,802.78h-.99c-.28,0-.5-.22-.5-.5s.22-.5.5-.5h.99c.28,0,.5.22.5.5s-.22.5-.5.5ZM675.32,802.78h-.99c-.28,0-.5-.22-.5-.5s.22-.5.5-.5h.99c.28,0,.5.22.5.5s-.22.5-.5.5ZM659.44,802.78h-.99c-.28,0-.5-.22-.5-.5s.22-.5.5-.5h.99c.28,0,.5.22.5.5s-.22.5-.5.5ZM643.57,802.78h-.99c-.28,0-.5-.22-.5-.5s.22-.5.5-.5h.99c.28,0,.5.22.5.5s-.22.5-.5.5ZM627.69,802.78h-.99c-.28,0-.5-.22-.5-.5s.22-.5.5-.5h.99c.28,0,.5.22.5.5s-.22.5-.5.5ZM611.82,802.78h-.99c-.28,0-.5-.22-.5-.5s.22-.5.5-.5h.99c.28,0,.5.22.5.5s-.22.5-.5.5ZM595.94,802.78h-.99c-.28,0-.5-.22-.5-.5s.22-.5.5-.5h.99c.28,0,.5.22.5.5s-.22.5-.5.5ZM580.06,802.78h-.99c-.28,0-.5-.22-.5-.5s.22-.5.5-.5h.99c.28,0,.5.22.5.5s-.22.5-.5.5ZM564.19,802.78h-.99c-.28,0-.5-.22-.5-.5s.22-.5.5-.5h.99c.28,0,.5.22.5.5s-.22.5-.5.5ZM548.31,802.78h-.99c-.28,0-.5-.22-.5-.5s.22-.5.5-.5h.99c.28,0,.5.22.5.5s-.22.5-.5.5ZM532.43,802.78h-.99c-.28,0-.5-.22-.5-.5s.22-.5.5-.5h.99c.28,0,.5.22.5.5s-.22.5-.5.5ZM516.56,802.78h-.99c-.28,0-.5-.22-.5-.5s.22-.5.5-.5h.99c.28,0,.5.22.5.5s-.22.5-.5.5ZM500.68,802.78h-.99c-.28,0-.5-.22-.5-.5s.22-.5.5-.5h.99c.28,0,.5.22.5.5s-.22.5-.5.5ZM484.81,802.78h-.99c-.28,0-.5-.22-.5-.5s.22-.5.5-.5h.99c.28,0,.5.22.5.5s-.22.5-.5.5ZM468.93,802.78h-.99c-.28,0-.5-.22-.5-.5s.22-.5.5-.5h.99c.28,0,.5.22.5.5s-.22.5-.5.5ZM453.05,802.78h-.99c-.28,0-.5-.22-.5-.5s.22-.5.5-.5h.99c.28,0,.5.22.5.5s-.22.5-.5.5ZM437.18,802.78h-.99c-.28,0-.5-.22-.5-.5s.22-.5.5-.5h.99c.28,0,.5.22.5.5s-.22.5-.5.5ZM421.3,802.78h-.99c-.28,0-.5-.22-.5-.5s.22-.5.5-.5h.99c.28,0,.5.22.5.5s-.22.5-.5.5ZM405.42,802.78h-.99c-.28,0-.5-.22-.5-.5s.22-.5.5-.5h.99c.28,0,.5.22.5.5s-.22.5-.5.5ZM389.55,802.78h-.99c-.28,0-.5-.22-.5-.5s.22-.5.5-.5h.99c.28,0,.5.22.5.5s-.22.5-.5.5ZM373.67,802.78h-.99c-.28,0-.5-.22-.5-.5s.22-.5.5-.5h.99c.28,0,.5.22.5.5s-.22.5-.5.5ZM357.8,802.78h-.99c-.28,0-.5-.22-.5-.5s.22-.5.5-.5h.99c.28,0,.5.22.5.5s-.22.5-.5.5ZM341.92,802.78h-.99c-.28,0-.5-.22-.5-.5s.22-.5.5-.5h.99c.28,0,.5.22.5.5s-.22.5-.5.5ZM326.04,802.78h-.99c-.28,0-.5-.22-.5-.5s.22-.5.5-.5h.99c.28,0,.5.22.5.5s-.22.5-.5.5ZM310.17,802.78h-.99c-.28,0-.5-.22-.5-.5s.22-.5.5-.5h.99c.28,0,.5.22.5.5s-.22.5-.5.5ZM294.29,802.78h-.99c-.28,0-.5-.22-.5-.5s.22-.5.5-.5h.99c.28,0,.5.22.5.5s-.22.5-.5.5ZM278.42,802.78h-.99c-.28,0-.5-.22-.5-.5s.22-.5.5-.5h.99c.28,0,.5.22.5.5s-.22.5-.5.5ZM262.54,802.78h-.99c-.28,0-.5-.22-.5-.5s.22-.5.5-.5h.99c.28,0,.5.22.5.5s-.22.5-.5.5ZM246.66,802.78h-.99c-.28,0-.5-.22-.5-.5s.22-.5.5-.5h.99c.28,0,.5.22.5.5s-.22.5-.5.5ZM230.79,802.78h-.99c-.28,0-.5-.22-.5-.5s.22-.5.5-.5h.99c.28,0,.5.22.5.5s-.22.5-.5.5ZM214.91,802.78h-.99c-.28,0-.5-.22-.5-.5s.22-.5.5-.5h.99c.28,0,.5.22.5.5s-.22.5-.5.5ZM199.03,802.78h-.99c-.28,0-.5-.22-.5-.5s.22-.5.5-.5h.99c.28,0,.5.22.5.5s-.22.5-.5.5ZM183.16,802.78h-.99c-.28,0-.5-.22-.5-.5s.22-.5.5-.5h.99c.28,0,.5.22.5.5s-.22.5-.5.5Z"/>
    <path class="cls-1" d="M167.28,802.78h-.5c-.28,0-.5-.22-.5-.5v-.5c0-.28.22-.5.5-.5s.5.22.5.5c.28,0,.5.22.5.5s-.22.5-.5.5Z"/>
    <path class="cls-1" d="M166.78,786.9c-.28,0-.5-.22-.5-.5v-1.02c0-.28.22-.5.5-.5s.5.22.5.5v1.02c0,.28-.22.5-.5.5Z"/>
    <path class="cls-1" d="M166.78,770.51c-.28,0-.5-.22-.5-.5v-1.02c0-.28.22-.5.5-.5s.5.22.5.5v1.02c0,.28-.22.5-.5.5ZM166.78,754.11c-.28,0-.5-.22-.5-.5v-1.02c0-.28.22-.5.5-.5s.5.22.5.5v1.02c0,.28-.22.5-.5.5ZM166.78,737.71c-.28,0-.5-.22-.5-.5v-1.02c0-.28.22-.5.5-.5s.5.22.5.5v1.02c0,.28-.22.5-.5.5ZM166.78,721.32c-.28,0-.5-.22-.5-.5v-1.03c0-.28.22-.5.5-.5s.5.22.5.5v1.03c0,.28-.22.5-.5.5ZM166.78,704.92c-.28,0-.5-.22-.5-.5v-1.03c0-.28.22-.5.5-.5s.5.22.5.5v1.03c0,.28-.22.5-.5.5ZM166.78,688.52c-.28,0-.5-.22-.5-.5v-1.03c0-.28.22-.5.5-.5s.5.22.5.5v1.03c0,.28-.22.5-.5.5ZM166.78,672.13c-.28,0-.5-.22-.5-.5v-1.03c0-.28.22-.5.5-.5s.5.22.5.5v1.03c0,.28-.22.5-.5.5ZM166.78,655.73c-.28,0-.5-.22-.5-.5v-1.03c0-.28.22-.5.5-.5s.5.22.5.5v1.03c0,.28-.22.5-.5.5ZM166.78,639.33c-.28,0-.5-.22-.5-.5v-1.03c0-.28.22-.5.5-.5s.5.22.5.5v1.03c0,.28-.22.5-.5.5ZM166.78,622.94c-.28,0-.5-.22-.5-.5v-1.03c0-.28.22-.5.5-.5s.5.22.5.5v1.03c0,.28-.22.5-.5.5ZM166.78,606.54c-.28,0-.5-.22-.5-.5v-1.03c0-.28.22-.5.5-.5s.5.22.5.5v1.03c0,.28-.22.5-.5.5ZM166.78,590.14c-.28,0-.5-.22-.5-.5v-1.02c0-.28.22-.5.5-.5s.5.22.5.5v1.02c0,.28-.22.5-.5.5ZM166.78,573.75c-.28,0-.5-.22-.5-.5v-1.02c0-.28.22-.5.5-.5s.5.22.5.5v1.02c0,.28-.22.5-.5.5ZM166.78,557.35c-.28,0-.5-.22-.5-.5v-1.02c0-.28.22-.5.5-.5s.5.22.5.5v1.02c0,.28-.22.5-.5.5ZM166.78,540.96c-.28,0-.5-.22-.5-.5v-1.02c0-.28.22-.5.5-.5s.5.22.5.5v1.02c0,.28-.22.5-.5.5ZM166.78,524.56c-.28,0-.5-.22-.5-.5v-1.02c0-.28.22-.5.5-.5s.5.22.5.5v1.02c0,.28-.22.5-.5.5ZM166.78,508.16c-.28,0-.5-.22-.5-.5v-1.02c0-.28.22-.5.5-.5s.5.22.5.5v1.02c0,.28-.22.5-.5.5ZM166.78,491.77c-.28,0-.5-.22-.5-.5v-1.02c0-.28.22-.5.5-.5s.5.22.5.5v1.02c0,.28-.22.5-.5.5ZM166.78,475.37c-.28,0-.5-.22-.5-.5v-1.02c0-.28.22-.5.5-.5s.5.22.5.5v1.02c0,.28-.22.5-.5.5ZM166.78,458.97c-.28,0-.5-.22-.5-.5v-1.02c0-.28.22-.5.5-.5s.5.22.5.5v1.02c0,.28-.22.5-.5.5ZM166.78,442.58c-.28,0-.5-.22-.5-.5v-1.02c0-.28.22-.5.5-.5s.5.22.5.5v1.02c0,.28-.22.5-.5.5ZM166.78,426.18c-.28,0-.5-.22-.5-.5v-1.02c0-.28.22-.5.5-.5s.5.22.5.5v1.02c0,.28-.22.5-.5.5ZM166.78,409.78c-.28,0-.5-.22-.5-.5v-1.02c0-.28.22-.5.5-.5s.5.22.5.5v1.02c0,.28-.22.5-.5.5ZM166.78,393.39c-.28,0-.5-.22-.5-.5v-1.02c0-.28.22-.5.5-.5s.5.22.5.5v1.02c0,.28-.22.5-.5.5ZM166.78,376.99c-.28,0-.5-.22-.5-.5v-1.02c0-.28.22-.5.5-.5s.5.22.5.5v1.02c0,.28-.22.5-.5.5ZM166.78,360.59c-.28,0-.5-.22-.5-.5v-1.02c0-.28.22-.5.5-.5s.5.22.5.5v1.02c0,.28-.22.5-.5.5ZM166.78,344.2c-.28,0-.5-.22-.5-.5v-1.02c0-.28.22-.5.5-.5s.5.22.5.5v1.02c0,.28-.22.5-.5.5ZM166.78,327.8c-.28,0-.5-.22-.5-.5v-1.02c0-.28.22-.5.5-.5s.5.22.5.5v1.02c0,.28-.22.5-.5.5ZM166.78,311.4c-.28,0-.5-.22-.5-.5v-1.02c0-.28.22-.5.5-.5s.5.22.5.5v1.02c0,.28-.22.5-.5.5ZM166.78,295.01c-.28,0-.5-.22-.5-.5v-1.02c0-.28.22-.5.5-.5s.5.22.5.5v1.02c0,.28-.22.5-.5.5Z"/>
    <path class="cls-1" d="M166.78,278.61c-.28,0-.5-.22-.5-.5v-.5c0-.28.22-.5.5-.5h.5c.28,0,.5.22.5.5s-.22.5-.5.5c0,.28-.22.5-.5.5Z"/>
    <path class="cls-1" d="M183.16,278.11h-.99c-.28,0-.5-.22-.5-.5s.22-.5.5-.5h.99c.28,0,.5.22.5.5s-.22.5-.5.5Z"/>
    <path class="cls-1" d="M1739.02,278.11h-.99c-.28,0-.5-.22-.5-.5s.22-.5.5-.5h.99c.28,0,.5.22.5.5s-.22.5-.5.5ZM1723.15,278.11h-.99c-.28,0-.5-.22-.5-.5s.22-.5.5-.5h.99c.28,0,.5.22.5.5s-.22.5-.5.5ZM1707.27,278.11h-.99c-.28,0-.5-.22-.5-.5s.22-.5.5-.5h.99c.28,0,.5.22.5.5s-.22.5-.5.5ZM1691.4,278.11h-.99c-.28,0-.5-.22-.5-.5s.22-.5.5-.5h.99c.28,0,.5.22.5.5s-.22.5-.5.5ZM1675.52,278.11h-.99c-.28,0-.5-.22-.5-.5s.22-.5.5-.5h.99c.28,0,.5.22.5.5s-.22.5-.5.5ZM1659.64,278.11h-.99c-.28,0-.5-.22-.5-.5s.22-.5.5-.5h.99c.28,0,.5.22.5.5s-.22.5-.5.5ZM1643.77,278.11h-.99c-.28,0-.5-.22-.5-.5s.22-.5.5-.5h.99c.28,0,.5.22.5.5s-.22.5-.5.5ZM1627.89,278.11h-.99c-.28,0-.5-.22-.5-.5s.22-.5.5-.5h.99c.28,0,.5.22.5.5s-.22.5-.5.5ZM1612.01,278.11h-.99c-.28,0-.5-.22-.5-.5s.22-.5.5-.5h.99c.28,0,.5.22.5.5s-.22.5-.5.5ZM1596.14,278.11h-.99c-.28,0-.5-.22-.5-.5s.22-.5.5-.5h.99c.28,0,.5.22.5.5s-.22.5-.5.5ZM1580.26,278.11h-.99c-.28,0-.5-.22-.5-.5s.22-.5.5-.5h.99c.28,0,.5.22.5.5s-.22.5-.5.5ZM1564.39,278.11h-.99c-.28,0-.5-.22-.5-.5s.22-.5.5-.5h.99c.28,0,.5.22.5.5s-.22.5-.5.5ZM1548.51,278.11h-.99c-.28,0-.5-.22-.5-.5s.22-.5.5-.5h.99c.28,0,.5.22.5.5s-.22.5-.5.5ZM1532.63,278.11h-.99c-.28,0-.5-.22-.5-.5s.22-.5.5-.5h.99c.28,0,.5.22.5.5s-.22.5-.5.5ZM1516.76,278.11h-.99c-.28,0-.5-.22-.5-.5s.22-.5.5-.5h.99c.28,0,.5.22.5.5s-.22.5-.5.5ZM1500.88,278.11h-.99c-.28,0-.5-.22-.5-.5s.22-.5.5-.5h.99c.28,0,.5.22.5.5s-.22.5-.5.5ZM1485,278.11h-.99c-.28,0-.5-.22-.5-.5s.22-.5.5-.5h.99c.28,0,.5.22.5.5s-.22.5-.5.5ZM1469.13,278.11h-.99c-.28,0-.5-.22-.5-.5s.22-.5.5-.5h.99c.28,0,.5.22.5.5s-.22.5-.5.5ZM1453.25,278.11h-.99c-.28,0-.5-.22-.5-.5s.22-.5.5-.5h.99c.28,0,.5.22.5.5s-.22.5-.5.5ZM1437.38,278.11h-.99c-.28,0-.5-.22-.5-.5s.22-.5.5-.5h.99c.28,0,.5.22.5.5s-.22.5-.5.5ZM1421.5,278.11h-.99c-.28,0-.5-.22-.5-.5s.22-.5.5-.5h.99c.28,0,.5.22.5.5s-.22.5-.5.5ZM1405.62,278.11h-.99c-.28,0-.5-.22-.5-.5s.22-.5.5-.5h.99c.28,0,.5.22.5.5s-.22.5-.5.5ZM1389.75,278.11h-.99c-.28,0-.5-.22-.5-.5s.22-.5.5-.5h.99c.28,0,.5.22.5.5s-.22.5-.5.5ZM1373.87,278.11h-.99c-.28,0-.5-.22-.5-.5s.22-.5.5-.5h.99c.28,0,.5.22.5.5s-.22.5-.5.5ZM1357.99,278.11h-.99c-.28,0-.5-.22-.5-.5s.22-.5.5-.5h.99c.28,0,.5.22.5.5s-.22.5-.5.5ZM1342.12,278.11h-.99c-.28,0-.5-.22-.5-.5s.22-.5.5-.5h.99c.28,0,.5.22.5.5s-.22.5-.5.5ZM1326.24,278.11h-.99c-.28,0-.5-.22-.5-.5s.22-.5.5-.5h.99c.28,0,.5.22.5.5s-.22.5-.5.5ZM1310.37,278.11h-.99c-.28,0-.5-.22-.5-.5s.22-.5.5-.5h.99c.28,0,.5.22.5.5s-.22.5-.5.5ZM1294.49,278.11h-.99c-.28,0-.5-.22-.5-.5s.22-.5.5-.5h.99c.28,0,.5.22.5.5s-.22.5-.5.5ZM1278.61,278.11h-.99c-.28,0-.5-.22-.5-.5s.22-.5.5-.5h.99c.28,0,.5.22.5.5s-.22.5-.5.5ZM1262.74,278.11h-.99c-.28,0-.5-.22-.5-.5s.22-.5.5-.5h.99c.28,0,.5.22.5.5s-.22.5-.5.5ZM1246.86,278.11h-.99c-.28,0-.5-.22-.5-.5s.22-.5.5-.5h.99c.28,0,.5.22.5.5s-.22.5-.5.5ZM1230.98,278.11h-.99c-.28,0-.5-.22-.5-.5s.22-.5.5-.5h.99c.28,0,.5.22.5.5s-.22.5-.5.5ZM1215.11,278.11h-.99c-.28,0-.5-.22-.5-.5s.22-.5.5-.5h.99c.28,0,.5.22.5.5s-.22.5-.5.5ZM1199.23,278.11h-.99c-.28,0-.5-.22-.5-.5s.22-.5.5-.5h.99c.28,0,.5.22.5.5s-.22.5-.5.5ZM1183.36,278.11h-.99c-.28,0-.5-.22-.5-.5s.22-.5.5-.5h.99c.28,0,.5.22.5.5s-.22.5-.5.5ZM1167.48,278.11h-.99c-.28,0-.5-.22-.5-.5s.22-.5.5-.5h.99c.28,0,.5.22.5.5s-.22.5-.5.5ZM1151.6,278.11h-.99c-.28,0-.5-.22-.5-.5s.22-.5.5-.5h.99c.28,0,.5.22.5.5s-.22.5-.5.5ZM1135.73,278.11h-.99c-.28,0-.5-.22-.5-.5s.22-.5.5-.5h.99c.28,0,.5.22.5.5s-.22.5-.5.5ZM1119.85,278.11h-.99c-.28,0-.5-.22-.5-.5s.22-.5.5-.5h.99c.28,0,.5.22.5.5s-.22.5-.5.5ZM1103.98,278.11h-.99c-.28,0-.5-.22-.5-.5s.22-.5.5-.5h.99c.28,0,.5.22.5.5s-.22.5-.5.5ZM1088.1,278.11h-.99c-.28,0-.5-.22-.5-.5s.22-.5.5-.5h.99c.28,0,.5.22.5.5s-.22.5-.5.5ZM1072.22,278.11h-.99c-.28,0-.5-.22-.5-.5s.22-.5.5-.5h.99c.28,0,.5.22.5.5s-.22.5-.5.5ZM1056.35,278.11h-.99c-.28,0-.5-.22-.5-.5s.22-.5.5-.5h.99c.28,0,.5.22.5.5s-.22.5-.5.5ZM1040.47,278.11h-.99c-.28,0-.5-.22-.5-.5s.22-.5.5-.5h.99c.28,0,.5.22.5.5s-.22.5-.5.5ZM1024.59,278.11h-.99c-.28,0-.5-.22-.5-.5s.22-.5.5-.5h.99c.28,0,.5.22.5.5s-.22.5-.5.5ZM1008.72,278.11h-.99c-.28,0-.5-.22-.5-.5s.22-.5.5-.5h.99c.28,0,.5.22.5.5s-.22.5-.5.5ZM992.84,278.11h-.99c-.28,0-.5-.22-.5-.5s.22-.5.5-.5h.99c.28,0,.5.22.5.5s-.22.5-.5.5ZM976.97,278.11h-.99c-.28,0-.5-.22-.5-.5s.22-.5.5-.5h.99c.28,0,.5.22.5.5s-.22.5-.5.5ZM961.09,278.11h-.99c-.28,0-.5-.22-.5-.5s.22-.5.5-.5h.99c.28,0,.5.22.5.5s-.22.5-.5.5ZM945.21,278.11h-.99c-.28,0-.5-.22-.5-.5s.22-.5.5-.5h.99c.28,0,.5.22.5.5s-.22.5-.5.5ZM929.34,278.11h-.99c-.28,0-.5-.22-.5-.5s.22-.5.5-.5h.99c.28,0,.5.22.5.5s-.22.5-.5.5ZM913.46,278.11h-.99c-.28,0-.5-.22-.5-.5s.22-.5.5-.5h.99c.28,0,.5.22.5.5s-.22.5-.5.5ZM897.59,278.11h-.99c-.28,0-.5-.22-.5-.5s.22-.5.5-.5h.99c.28,0,.5.22.5.5s-.22.5-.5.5ZM881.71,278.11h-.99c-.28,0-.5-.22-.5-.5s.22-.5.5-.5h.99c.28,0,.5.22.5.5s-.22.5-.5.5ZM865.83,278.11h-.99c-.28,0-.5-.22-.5-.5s.22-.5.5-.5h.99c.28,0,.5.22.5.5s-.22.5-.5.5ZM849.96,278.11h-.99c-.28,0-.5-.22-.5-.5s.22-.5.5-.5h.99c.28,0,.5.22.5.5s-.22.5-.5.5ZM834.08,278.11h-.99c-.28,0-.5-.22-.5-.5s.22-.5.5-.5h.99c.28,0,.5.22.5.5s-.22.5-.5.5ZM818.2,278.11h-.99c-.28,0-.5-.22-.5-.5s.22-.5.5-.5h.99c.28,0,.5.22.5.5s-.22.5-.5.5ZM802.33,278.11h-.99c-.28,0-.5-.22-.5-.5s.22-.5.5-.5h.99c.28,0,.5.22.5.5s-.22.5-.5.5ZM786.45,278.11h-.99c-.28,0-.5-.22-.5-.5s.22-.5.5-.5h.99c.28,0,.5.22.5.5s-.22.5-.5.5ZM770.58,278.11h-.99c-.28,0-.5-.22-.5-.5s.22-.5.5-.5h.99c.28,0,.5.22.5.5s-.22.5-.5.5ZM754.7,278.11h-.99c-.28,0-.5-.22-.5-.5s.22-.5.5-.5h.99c.28,0,.5.22.5.5s-.22.5-.5.5ZM738.82,278.11h-.99c-.28,0-.5-.22-.5-.5s.22-.5.5-.5h.99c.28,0,.5.22.5.5s-.22.5-.5.5ZM722.95,278.11h-.99c-.28,0-.5-.22-.5-.5s.22-.5.5-.5h.99c.28,0,.5.22.5.5s-.22.5-.5.5ZM707.07,278.11h-.99c-.28,0-.5-.22-.5-.5s.22-.5.5-.5h.99c.28,0,.5.22.5.5s-.22.5-.5.5ZM691.2,278.11h-.99c-.28,0-.5-.22-.5-.5s.22-.5.5-.5h.99c.28,0,.5.22.5.5s-.22.5-.5.5ZM675.32,278.11h-.99c-.28,0-.5-.22-.5-.5s.22-.5.5-.5h.99c.28,0,.5.22.5.5s-.22.5-.5.5ZM659.44,278.11h-.99c-.28,0-.5-.22-.5-.5s.22-.5.5-.5h.99c.28,0,.5.22.5.5s-.22.5-.5.5ZM643.57,278.11h-.99c-.28,0-.5-.22-.5-.5s.22-.5.5-.5h.99c.28,0,.5.22.5.5s-.22.5-.5.5ZM627.69,278.11h-.99c-.28,0-.5-.22-.5-.5s.22-.5.5-.5h.99c.28,0,.5.22.5.5s-.22.5-.5.5ZM611.81,278.11h-.99c-.28,0-.5-.22-.5-.5s.22-.5.5-.5h.99c.28,0,.5.22.5.5s-.22.5-.5.5ZM595.94,278.11h-.99c-.28,0-.5-.22-.5-.5s.22-.5.5-.5h.99c.28,0,.5.22.5.5s-.22.5-.5.5ZM580.06,278.11h-.99c-.28,0-.5-.22-.5-.5s.22-.5.5-.5h.99c.28,0,.5.22.5.5s-.22.5-.5.5ZM564.19,278.11h-.99c-.28,0-.5-.22-.5-.5s.22-.5.5-.5h.99c.28,0,.5.22.5.5s-.22.5-.5.5ZM548.31,278.11h-.99c-.28,0-.5-.22-.5-.5s.22-.5.5-.5h.99c.28,0,.5.22.5.5s-.22.5-.5.5ZM532.43,278.11h-.99c-.28,0-.5-.22-.5-.5s.22-.5.5-.5h.99c.28,0,.5.22.5.5s-.22.5-.5.5ZM516.56,278.11h-.99c-.28,0-.5-.22-.5-.5s.22-.5.5-.5h.99c.28,0,.5.22.5.5s-.22.5-.5.5ZM500.68,278.11h-.99c-.28,0-.5-.22-.5-.5s.22-.5.5-.5h.99c.28,0,.5.22.5.5s-.22.5-.5.5ZM484.8,278.11h-.99c-.28,0-.5-.22-.5-.5s.22-.5.5-.5h.99c.28,0,.5.22.5.5s-.22.5-.5.5ZM468.93,278.11h-.99c-.28,0-.5-.22-.5-.5s.22-.5.5-.5h.99c.28,0,.5.22.5.5s-.22.5-.5.5ZM453.05,278.11h-.99c-.28,0-.5-.22-.5-.5s.22-.5.5-.5h.99c.28,0,.5.22.5.5s-.22.5-.5.5ZM437.18,278.11h-.99c-.28,0-.5-.22-.5-.5s.22-.5.5-.5h.99c.28,0,.5.22.5.5s-.22.5-.5.5ZM421.3,278.11h-.99c-.28,0-.5-.22-.5-.5s.22-.5.5-.5h.99c.28,0,.5.22.5.5s-.22.5-.5.5ZM405.42,278.11h-.99c-.28,0-.5-.22-.5-.5s.22-.5.5-.5h.99c.28,0,.5.22.5.5s-.22.5-.5.5ZM389.55,278.11h-.99c-.28,0-.5-.22-.5-.5s.22-.5.5-.5h.99c.28,0,.5.22.5.5s-.22.5-.5.5ZM373.67,278.11h-.99c-.28,0-.5-.22-.5-.5s.22-.5.5-.5h.99c.28,0,.5.22.5.5s-.22.5-.5.5ZM357.8,278.11h-.99c-.28,0-.5-.22-.5-.5s.22-.5.5-.5h.99c.28,0,.5.22.5.5s-.22.5-.5.5ZM341.92,278.11h-.99c-.28,0-.5-.22-.5-.5s.22-.5.5-.5h.99c.28,0,.5.22.5.5s-.22.5-.5.5ZM326.04,278.11h-.99c-.28,0-.5-.22-.5-.5s.22-.5.5-.5h.99c.28,0,.5.22.5.5s-.22.5-.5.5ZM310.17,278.11h-.99c-.28,0-.5-.22-.5-.5s.22-.5.5-.5h.99c.28,0,.5.22.5.5s-.22.5-.5.5ZM294.29,278.11h-.99c-.28,0-.5-.22-.5-.5s.22-.5.5-.5h.99c.28,0,.5.22.5.5s-.22.5-.5.5ZM278.41,278.11h-.99c-.28,0-.5-.22-.5-.5s.22-.5.5-.5h.99c.28,0,.5.22.5.5s-.22.5-.5.5ZM262.54,278.11h-.99c-.28,0-.5-.22-.5-.5s.22-.5.5-.5h.99c.28,0,.5.22.5.5s-.22.5-.5.5ZM246.66,278.11h-.99c-.28,0-.5-.22-.5-.5s.22-.5.5-.5h.99c.28,0,.5.22.5.5s-.22.5-.5.5ZM230.79,278.11h-.99c-.28,0-.5-.22-.5-.5s.22-.5.5-.5h.99c.28,0,.5.22.5.5s-.22.5-.5.5ZM214.91,278.11h-.99c-.28,0-.5-.22-.5-.5s.22-.5.5-.5h.99c.28,0,.5.22.5.5s-.22.5-.5.5ZM199.03,278.11h-.99c-.28,0-.5-.22-.5-.5s.22-.5.5-.5h.99c.28,0,.5.22.5.5s-.22.5-.5.5Z"/>
    <path class="cls-1" d="M1754.41,278.61c-.28,0-.5-.22-.5-.5-.28,0-.5-.22-.5-.5s.22-.5.5-.5h.5c.28,0,.5.22.5.5v.5c0,.28-.22.5-.5.5Z"/>
    <path class="cls-1" d="M1754.41,295.01c-.28,0-.5-.22-.5-.5v-1.02c0-.28.22-.5.5-.5s.5.22.5.5v1.02c0,.28-.22.5-.5.5Z"/>
    <path class="cls-1" d="M1754.41,786.9c-.28,0-.5-.22-.5-.5v-1.02c0-.28.22-.5.5-.5s.5.22.5.5v1.02c0,.28-.22.5-.5.5ZM1754.41,770.51c-.28,0-.5-.22-.5-.5v-1.02c0-.28.22-.5.5-.5s.5.22.5.5v1.02c0,.28-.22.5-.5.5ZM1754.41,754.11c-.28,0-.5-.22-.5-.5v-1.02c0-.28.22-.5.5-.5s.5.22.5.5v1.02c0,.28-.22.5-.5.5ZM1754.41,737.71c-.28,0-.5-.22-.5-.5v-1.02c0-.28.22-.5.5-.5s.5.22.5.5v1.02c0,.28-.22.5-.5.5ZM1754.41,721.32c-.28,0-.5-.22-.5-.5v-1.02c0-.28.22-.5.5-.5s.5.22.5.5v1.02c0,.28-.22.5-.5.5ZM1754.41,704.92c-.28,0-.5-.22-.5-.5v-1.02c0-.28.22-.5.5-.5s.5.22.5.5v1.02c0,.28-.22.5-.5.5ZM1754.41,688.52c-.28,0-.5-.22-.5-.5v-1.03c0-.28.22-.5.5-.5s.5.22.5.5v1.03c0,.28-.22.5-.5.5ZM1754.41,672.13c-.28,0-.5-.22-.5-.5v-1.03c0-.28.22-.5.5-.5s.5.22.5.5v1.03c0,.28-.22.5-.5.5ZM1754.41,655.73c-.28,0-.5-.22-.5-.5v-1.03c0-.28.22-.5.5-.5s.5.22.5.5v1.03c0,.28-.22.5-.5.5ZM1754.41,639.33c-.28,0-.5-.22-.5-.5v-1.03c0-.28.22-.5.5-.5s.5.22.5.5v1.03c0,.28-.22.5-.5.5ZM1754.41,622.94c-.28,0-.5-.22-.5-.5v-1.03c0-.28.22-.5.5-.5s.5.22.5.5v1.03c0,.28-.22.5-.5.5ZM1754.41,606.54c-.28,0-.5-.22-.5-.5v-1.03c0-.28.22-.5.5-.5s.5.22.5.5v1.03c0,.28-.22.5-.5.5ZM1754.41,590.15c-.28,0-.5-.22-.5-.5v-1.03c0-.28.22-.5.5-.5s.5.22.5.5v1.03c0,.28-.22.5-.5.5ZM1754.41,573.75c-.28,0-.5-.22-.5-.5v-1.03c0-.28.22-.5.5-.5s.5.22.5.5v1.03c0,.28-.22.5-.5.5ZM1754.41,557.35c-.28,0-.5-.22-.5-.5v-1.03c0-.28.22-.5.5-.5s.5.22.5.5v1.03c0,.28-.22.5-.5.5ZM1754.41,540.96c-.28,0-.5-.22-.5-.5v-1.02c0-.28.22-.5.5-.5s.5.22.5.5v1.02c0,.28-.22.5-.5.5ZM1754.41,524.56c-.28,0-.5-.22-.5-.5v-1.02c0-.28.22-.5.5-.5s.5.22.5.5v1.02c0,.28-.22.5-.5.5ZM1754.41,508.16c-.28,0-.5-.22-.5-.5v-1.02c0-.28.22-.5.5-.5s.5.22.5.5v1.02c0,.28-.22.5-.5.5ZM1754.41,491.77c-.28,0-.5-.22-.5-.5v-1.02c0-.28.22-.5.5-.5s.5.22.5.5v1.02c0,.28-.22.5-.5.5ZM1754.41,475.37c-.28,0-.5-.22-.5-.5v-1.02c0-.28.22-.5.5-.5s.5.22.5.5v1.02c0,.28-.22.5-.5.5ZM1754.41,458.97c-.28,0-.5-.22-.5-.5v-1.02c0-.28.22-.5.5-.5s.5.22.5.5v1.02c0,.28-.22.5-.5.5ZM1754.41,442.58c-.28,0-.5-.22-.5-.5v-1.02c0-.28.22-.5.5-.5s.5.22.5.5v1.02c0,.28-.22.5-.5.5ZM1754.41,426.18c-.28,0-.5-.22-.5-.5v-1.02c0-.28.22-.5.5-.5s.5.22.5.5v1.02c0,.28-.22.5-.5.5ZM1754.41,409.78c-.28,0-.5-.22-.5-.5v-1.02c0-.28.22-.5.5-.5s.5.22.5.5v1.02c0,.28-.22.5-.5.5ZM1754.41,393.39c-.28,0-.5-.22-.5-.5v-1.02c0-.28.22-.5.5-.5s.5.22.5.5v1.02c0,.28-.22.5-.5.5ZM1754.41,376.99c-.28,0-.5-.22-.5-.5v-1.02c0-.28.22-.5.5-.5s.5.22.5.5v1.02c0,.28-.22.5-.5.5ZM1754.41,360.59c-.28,0-.5-.22-.5-.5v-1.02c0-.28.22-.5.5-.5s.5.22.5.5v1.02c0,.28-.22.5-.5.5ZM1754.41,344.2c-.28,0-.5-.22-.5-.5v-1.02c0-.28.22-.5.5-.5s.5.22.5.5v1.02c0,.28-.22.5-.5.5ZM1754.41,327.8c-.28,0-.5-.22-.5-.5v-1.02c0-.28.22-.5.5-.5s.5.22.5.5v1.02c0,.28-.22.5-.5.5ZM1754.41,311.4c-.28,0-.5-.22-.5-.5v-1.02c0-.28.22-.5.5-.5s.5.22.5.5v1.02c0,.28-.22.5-.5.5Z"/>
  </g>
  <polygon class="cls-1" points="1770.75 799.55 1755.71 799.55 1755.71 784.51 1750.54 784.51 1750.54 799.55 1735.49 799.55 1735.49 804.72 1750.54 804.72 1750.54 819.77 1755.71 819.77 1755.71 804.72 1770.75 804.72 1770.75 799.55"/>
  <polygon class="cls-1" points="1772.04 275.03 1756.99 275.03 1756.99 259.98 1751.82 259.98 1751.82 275.03 1736.78 275.03 1736.78 280.2 1751.82 280.2 1751.82 295.24 1756.99 295.24 1756.99 280.2 1772.04 280.2 1772.04 275.03"/>
  <polygon class="cls-1" points="183.77 799.62 168.72 799.62 168.72 784.58 163.55 784.58 163.55 799.62 148.51 799.62 148.51 804.79 163.55 804.79 163.55 819.84 168.72 819.84 168.72 804.79 183.77 804.79 183.77 799.62"/>
  <polygon class="cls-1" points="185.05 275.1 170.01 275.1 170.01 260.05 164.84 260.05 164.84 275.1 149.8 275.1 149.8 280.26 164.84 280.26 164.84 295.31 170.01 295.31 170.01 280.26 185.05 280.26 185.05 275.1"/>
</svg>