<?xml version="1.0" encoding="UTF-8"?>
<svg id="Layer_1" data-name="Layer 1" xmlns="http://www.w3.org/2000/svg" viewBox="0 0 138.48 153.28">
  <defs>
    <style>
      .cls-1 {
        fill: #fff;
      }
    </style>
  </defs>
  <polygon class="cls-1" points="64.47 71.02 64.47 71.02 64.47 71.02 64.47 77.47 64.47 83.93 64.47 83.93 64.47 131.26 77.37 131.26 77.37 93.05 127.54 143.21 136.66 134.09 86.5 83.92 124.71 83.93 124.71 71.02 64.47 71.02"/>
  <path class="cls-1" d="M64.47,133.68c-34.55,0-62.65-28.11-62.65-62.65S29.92,8.37,64.47,8.37s62.65,28.11,62.65,62.65-28.11,62.65-62.65,62.65ZM64.47,19.37c-28.48,0-51.65,23.17-51.65,51.65s23.17,51.65,51.65,51.65,51.65-23.17,51.65-51.65-23.17-51.65-51.65-51.65Z"/>
</svg>