<?xml version="1.0" encoding="UTF-8"?>
<svg id="Layer_1" data-name="Layer 1" xmlns="http://www.w3.org/2000/svg" viewBox="0 0 396.36 332.73">
  <defs>
    <style>
      .cls-1 {
        fill: #d54d27;
      }
    </style>
  </defs>
  <path class="cls-1" d="M250.48,89.25c9.08-4.4,20.01-.61,24.41,8.48,4.4,9.08.61,20.01-8.48,24.41l-16.44,7.97-.26-.53-8.1-16.71h.03c-3.82-8.91.01-19.34,8.83-23.62Z"/>
  <path class="cls-1" d="M116.05,211.32h0s64.77-114.87,64.77-114.87h.02c3.4-6.7,10.34-11.3,18.37-11.3,8.03,0,14.97,4.6,18.37,11.3h.02l66.94,138.29h0c.65,1.08,1.02,2.34,1.02,3.69,0,3.85-3.05,6.98-6.86,7.13h0s-40.48.01-40.48.01l2.17-.07c-.47.03-3.15.07-3.63.07-12.19,0-22.07-9.88-22.07-22.07,0-4.29,1.25-8.29,3.37-11.68,0,0,20.46-36.2,20.82-37.06l.02-.04h0c1-2.42,1.55-5.07,1.55-7.84,0-11.38-9.22-20.6-20.6-20.6-6.44,0-12.19,2.96-15.97,7.59h0s-.02.02-.02.02c-1.17,1.44-48.17,79.2-48.17,79.2h0c-3.73,6.69-11.37,12.47-20.21,12.47-12.49,0-22.62-10.13-22.62-22.62,0-4.26,1.18-8.24,3.23-11.65Z"/>
</svg>